{
  "accessors": [
    {
      "bufferView": 2,
      "componentType": 5126,
      "count": 827,
      "max": [
        2447.09765625,
        2468.119873046875,
        2739.7119140625
      ],
      "min": [
        -2449.576904296875,
        37.051937103271484,
        -2694.994384765625
      ],
      "type": "VEC3"
    },
    {
      "bufferView": 2,
      "byteOffset": 9924,
      "componentType": 5126,
      "count": 827,
      "max": [
        0.99676990509033203,
        0.99990195035934448,
        0.99549376964569092
      ],
      "min": [
        -0.99676990509033203,
        -0.99997520446777344,
        -0.99874043464660645
      ],
      "type": "VEC3"
    },
    {
      "bufferView": 3,
      "componentType": 5126,
      "count": 827,
      "max": [
        0.99996131658554077,
        0.99858886003494263,
        0.99857300519943237,
        1
      ],
      "min": [
        -0.99996131658554077,
        -0.99659770727157593,
        -0.99997520446777344,
        -1
      ],
      "type": "VEC4"
    },
    {
      "bufferView": 1,
      "componentType": 5126,
      "count": 827,
      "max": [
        0.99677997827529907,
        0.9966999888420105
      ],
      "min": [
        0.0019399999873712659,
        0.0056199999526143074
      ],
      "type": "VEC2"
    },
    {
      "bufferView": 0,
      "componentType": 5125,
      "count": 2946,
      "max": [
        826
      ],
      "min": [
        0
      ],
      "type": "SCALAR"
    }
  ],
  "asset": {
    "extras": {
      "author": "Duane's Mind (https://sketchfab.com/duanesmind)",
      "license": "CC-BY-4.0 (http://creativecommons.org/licenses/by/4.0/)",
      "source": "https://sketchfab.com/3d-models/low-poly-spaceship-1010-c4a822dea9e7472c99547aca8b282ab7",
      "title": "Low Poly Spaceship 10/10"
    },
    "generator": "Sketchfab-4.88.0",
    "version": "2.0"
  },
  "bufferViews": [
    {
      "buffer": 0,
      "byteLength": 11784,
      "byteOffset": 0,
      "name": "floatBufferViews",
      "target": 34963
    },
    {
      "buffer": 0,
      "byteLength": 6616,
      "byteOffset": 11784,
      "byteStride": 8,
      "name": "floatBufferViews",
      "target": 34962
    },
    {
      "buffer": 0,
      "byteLength": 19848,
      "byteOffset": 18400,
      "byteStride": 12,
      "name": "floatBufferViews",
      "target": 34962
    },
    {
      "buffer": 0,
      "byteLength": 13232,
      "byteOffset": 38248,
      "byteStride": 16,
      "name": "floatBufferViews",
      "target": 34962
    }
  ],
  "buffers": [
    {
      "byteLength": 51480,
      "uri": "scene.bin"
    }
  ],
  "extensionsRequired": [
    "KHR_materials_pbrSpecularGlossiness"
  ],
  "extensionsUsed": [
    "KHR_materials_pbrSpecularGlossiness"
  ],
  "images": [
    {
      "uri": "textures/Spaceship10_Material_specularGlossiness.png"
    },
    {
      "uri": "textures/Spaceship10_Material_emissive.png"
    },
    {
      "uri": "textures/Spaceship10_Material_diffuse.png"
    }
  ],
  "materials": [
    {
      "doubleSided": true,
      "emissiveFactor": [
        1,
        1,
        1
      ],
      "emissiveTexture": {
        "index": 1,
        "texCoord": 0
      },
      "extensions": {
        "KHR_materials_pbrSpecularGlossiness": {
          "diffuseFactor": [
            1,
            1,
            1,
            1
          ],
          "diffuseTexture": {
            "index": 2,
            "texCoord": 0
          },
          "glossinessFactor": 0.88655303029999999,
          "specularFactor": [
            1,
            1,
            1
          ],
          "specularGlossinessTexture": {
            "index": 0,
            "texCoord": 0
          }
        }
      },
      "name": "Spaceship10_Material"
    }
  ],
  "meshes": [
    {
      "name": "Spaceship10_Spaceship10_Material_0",
      "primitives": [
        {
          "attributes": {
            "NORMAL": 1,
            "POSITION": 0,
            "TANGENT": 2,
            "TEXCOORD_0": 3
          },
          "indices": 4,
          "material": 0,
          "mode": 4
        }
      ]
    }
  ],
  "nodes": [
    {
      "children": [
        1
      ],
      "name": "RootNode (gltf orientation matrix)",
      "rotation": [
        -0.70710678118654746,
        -0,
        -0,
        0.70710678118654757
      ]
    },
    {
      "children": [
        2
      ],
      "name": "RootNode (model correction matrix)"
    },
    {
      "children": [
        3
      ],
      "matrix": [
        1,
        0,
        0,
        0,
        0,
        0,
        1,
        0,
        0,
        -1,
        0,
        0,
        0,
        0,
        0,
        1
      ],
      "name": "3e1cb66c05bd4a46b70ecee070f7ad0b.fbx"
    },
    {
      "children": [
        4
      ],
      "name": "RootNode"
    },
    {
      "children": [
        5
      ],
      "matrix": [
        0.0099999997764825821,
        0,
        0,
        0,
        0,
        0.0099999997764825821,
        0,
        0,
        0,
        0,
        0.0099999997764825821,
        0,
        0,
        0,
        0,
        1
      ],
      "name": "Spaceship10"
    },
    {
      "mesh": 0,
      "name": "Spaceship10_Spaceship10_Material_0"
    }
  ],
  "samplers": [
    {
      "magFilter": 9729,
      "minFilter": 9987,
      "wrapS": 10497,
      "wrapT": 10497
    }
  ],
  "scene": 0,
  "scenes": [
    {
      "name": "OSG_Scene",
      "nodes": [
        0
      ]
    }
  ],
  "textures": [
    {
      "sampler": 0,
      "source": 0
    },
    {
      "sampler": 0,
      "source": 1
    },
    {
      "sampler": 0,
      "source": 2
    }
  ]
}

